<?xml version="1.0" encoding="iso-8859-1"?>
<!-- Generator: Adobe Illustrator 16.0.0, SVG Export Plug-In . SVG Version: 6.00 Build 0)  -->
<!DOCTYPE svg PUBLIC "-//W3C//DTD SVG 1.1//EN" "http://www.w3.org/Graphics/SVG/1.1/DTD/svg11.dtd">
<svg version="1.1" id="Capa_1" xmlns="http://www.w3.org/2000/svg" xmlns:xlink="http://www.w3.org/1999/xlink" x="0px" y="0px"
	 width="613.408px" height="613.408px" viewBox="0 0 613.408 613.408" style="enable-background:new 0 0 613.408 613.408;"
	 xml:space="preserve">
<g>
	<path d="M605.254,168.94L443.792,7.457c-6.924-6.882-17.102-9.239-26.319-6.069c-9.177,3.128-15.809,11.241-17.019,20.855
		l-9.093,70.512L267.585,216.428h-142.65c-10.344,0-19.625,6.215-23.629,15.746c-3.92,9.573-1.71,20.522,5.589,27.779
		l105.424,105.403L0.699,613.408l246.635-212.869l105.423,105.402c4.881,4.881,11.45,7.467,17.999,7.467
		c3.295,0,6.632-0.709,9.78-2.002c9.573-3.922,15.726-13.244,15.726-23.504V345.168l123.839-123.714l70.429-9.176
		c9.614-1.251,17.727-7.862,20.813-17.039C614.472,186.021,612.136,175.801,605.254,168.94z M504.856,171.985
		c-5.568,0.751-10.762,3.232-14.745,7.237L352.758,316.596c-4.796,4.775-7.466,11.242-7.466,18.041v91.742L186.437,267.481h91.68
		c6.757,0,13.243-2.669,18.04-7.466L433.51,122.766c3.983-3.983,6.569-9.176,7.258-14.786l3.629-27.696l88.155,88.114
		L504.856,171.985z"/>
</g>
<g>
</g>
<g>
</g>
<g>
</g>
<g>
</g>
<g>
</g>
<g>
</g>
<g>
</g>
<g>
</g>
<g>
</g>
<g>
</g>
<g>
</g>
<g>
</g>
<g>
</g>
<g>
</g>
<g>
</g>
</svg>
